<svg width="221" height="46" viewBox="0 0 221 46" fill="none" xmlns="http://www.w3.org/2000/svg">
<g clip-path="url(#clip0_1597_2035)">
<path d="M55.5139 9.37561C64.0912 9.37561 69.1696 14.653 69.1696 23.7485C69.1696 32.864 64.1112 38.2218 55.5139 38.2218H45.3372V9.37561H55.5139ZM49.8157 34.3433H55.0941C61.2121 34.3433 64.591 30.6052 64.591 23.7885C64.591 16.9919 61.1921 13.2337 55.0941 13.2337H49.8157V34.3433Z" fill="#161612"/>
<path d="M90.4105 32.0444C89.8307 35.8626 86.1119 38.4817 81.3534 38.4817C75.2353 38.4817 71.4365 34.3833 71.4365 27.8065C71.4365 21.2098 75.2553 16.9319 81.1734 16.9319C86.9916 16.9319 90.6504 20.9299 90.6504 27.3068V28.786H75.7951V29.0459C75.7951 32.6441 78.0544 35.003 81.4533 35.003C83.8526 35.003 85.732 33.8635 86.3118 32.0444H90.4105ZM75.8151 25.7675H86.3318C86.2318 22.5491 84.1725 20.4302 81.1734 20.4302C78.1944 20.4302 76.0351 22.5891 75.8151 25.7675Z" fill="#161612"/>
<path d="M103.874 38.2218H99.2353L91.6577 17.1918H96.2563L101.535 34.0035H101.615L106.893 17.1918H111.411L103.874 38.2218Z" fill="#161612"/>
<path d="M130.983 32.0444C130.403 35.8626 126.684 38.4817 121.926 38.4817C115.808 38.4817 112.009 34.3833 112.009 27.8065C112.009 21.2098 115.828 16.9319 121.746 16.9319C127.564 16.9319 131.223 20.9299 131.223 27.3068V28.786H116.367V29.0459C116.367 32.6441 118.627 35.003 122.026 35.003C124.425 35.003 126.304 33.8635 126.884 32.0444H130.983ZM116.387 25.7675H126.904C126.804 22.5491 124.745 20.4302 121.746 20.4302C118.767 20.4302 116.607 22.5891 116.387 25.7675Z" fill="#161612"/>
<path d="M134.722 9.37561H139.04V38.2218H134.722V9.37561Z" fill="#161612"/>
<path d="M142.212 27.7066C142.212 21.0898 146.111 16.9319 152.189 16.9319C158.287 16.9319 162.166 21.0898 162.166 27.7066C162.166 34.3433 158.307 38.4817 152.189 38.4817C146.071 38.4817 142.212 34.3433 142.212 27.7066ZM157.767 27.7066C157.767 23.1688 155.688 20.4901 152.189 20.4901C148.69 20.4901 146.611 23.1888 146.611 27.7066C146.611 32.2643 148.69 34.923 152.189 34.923C155.688 34.923 157.767 32.2643 157.767 27.7066Z" fill="#161612"/>
<path d="M184.909 27.7066C184.909 34.2434 181.41 38.4417 176.132 38.4417C173.133 38.4417 170.753 37.1024 169.514 34.7632H169.414V45.1784H165.095V17.1918H169.274V20.6901H169.354C170.553 18.4312 173.113 16.9719 176.052 16.9719C181.39 16.9719 184.909 21.1898 184.909 27.7066ZM180.47 27.7066C180.47 23.4487 178.271 20.6501 174.912 20.6501C171.613 20.6501 169.394 23.5087 169.394 27.7066C169.394 31.9445 171.613 34.7832 174.912 34.7832C178.271 34.7832 180.47 32.0045 180.47 27.7066Z" fill="#161612"/>
<path d="M206.098 32.0444C205.518 35.8626 201.799 38.4817 197.041 38.4817C190.923 38.4817 187.124 34.3833 187.124 27.8065C187.124 21.2098 190.943 16.9319 196.861 16.9319C202.679 16.9319 206.338 20.9299 206.338 27.3068V28.786H191.483V29.0459C191.483 32.6441 193.742 35.003 197.141 35.003C199.54 35.003 201.419 33.8635 201.999 32.0444H206.098ZM191.503 25.7675H202.019C201.919 22.5491 199.86 20.4302 196.861 20.4302C193.882 20.4302 191.723 22.5891 191.503 25.7675Z" fill="#161612"/>
<path d="M209.472 17.1918H213.591V20.7701H213.691C214.351 18.3912 216.27 16.9719 218.749 16.9719C219.369 16.9719 219.889 17.0519 220.229 17.1318V21.1699C219.889 21.0299 219.129 20.91 218.289 20.91C215.51 20.91 213.791 22.7891 213.791 25.7476V38.2219H209.472V17.1918Z" fill="#161612"/>
<path d="M22.3094 6.15193C23.6336 4.49587 24.5323 2.27226 24.2953 0C22.3568 0.0963756 19.9912 1.27868 18.6216 2.93604C17.3919 4.35531 16.3035 6.67202 16.5872 8.84903C18.7633 9.03776 20.9374 7.76153 22.3094 6.15193Z" fill="#161612"/>
<path d="M24.2705 9.27408C21.1103 9.08587 18.4233 11.0673 16.9142 11.0673C15.4042 11.0673 13.0932 9.36892 10.5936 9.41469C7.3403 9.46247 4.32158 11.3016 2.67066 14.2267C-0.725012 20.0783 1.77454 28.7583 5.07665 33.5241C6.68023 35.8819 8.61281 38.478 11.1593 38.3848C13.5653 38.2904 14.5083 36.8271 17.4329 36.8271C20.3554 36.8271 21.2049 38.3848 23.7517 38.3376C26.3929 38.2904 28.0442 35.9786 29.6477 33.6185C31.4873 30.9307 32.2404 28.3355 32.2878 28.193C32.2404 28.1458 27.1948 26.2105 27.148 20.4076C27.1004 15.5487 31.1094 13.2375 31.298 13.0942C29.0341 9.74641 25.4968 9.36892 24.2705 9.27408Z" fill="#161612"/>
</g>
<defs>
<clipPath id="clip0_1597_2035">
<rect width="220" height="46" fill="white" transform="translate(0.640137)"/>
</clipPath>
</defs>
</svg>
